<svg height="512" viewBox="0 0 64 64" width="512" xmlns="http://www.w3.org/2000/svg"><g id="air_condition-air_conditioner-vacuum-vacuum_cleaner-cleaning" data-name="air condition-air conditioner-vacuum-vacuum cleaner-cleaning"><path d="m45 12a3 3 0 1 0 -3-3 3 3 0 0 0 3 3zm0-4a1 1 0 1 1 -1 1 1 1 0 0 1 1-1z"/><path d="m51 12h6a1 1 0 0 0 1-1v-4a1 1 0 0 0 -1-1h-6a1 1 0 0 0 -1 1v4a1 1 0 0 0 1 1zm1-4h4v2h-4z"/><path d="m8 8h3v-2h-4a1 1 0 0 0 -1 1v4h2z"/><path d="m14 6h2v2h-2z"/><path d="m57 2h-50a5 5 0 0 0 -5 5v18a5 5 0 0 0 5 5h50a5 5 0 0 0 5-5v-18a5 5 0 0 0 -5-5zm-44 26h-6a3.01 3.01 0 0 1 -2.82-2h8.82zm0-4h-9v-2h9zm10 4h-8v-2h8zm0-4h-8v-2h8zm16 4h-14v-2h14zm0-4h-14v-2h14zm10 4h-8v-2h8zm0-4h-8v-2h8zm8 4h-6v-2h8.82a3.01 3.01 0 0 1 -2.82 2zm3-4h-9v-2h9zm0-4h-56v-13a3.009 3.009 0 0 1 3-3h50a3.009 3.009 0 0 1 3 3z"/><path d="m46 56.18v-11.18a1 1 0 0 0 -1-1c-.36 0-.72.03-1.07.05a7.009 7.009 0 0 0 -6.93-6.05h-8a7.008 7.008 0 0 0 -7 7v7h-1a1 1 0 0 0 -1 1v3h-1a3.009 3.009 0 0 0 -3 3v2a1 1 0 0 0 1 1h12a1 1 0 0 0 1-1v-2a3.009 3.009 0 0 0 -3-3h-1v-3a1 1 0 0 0 -1-1h-1v-7a5 5 0 0 1 5-5h8a5 5 0 0 1 4.94 4.38 13.005 13.005 0 0 0 -9.94 12.62v4a1 1 0 0 0 1 1h12a3 3 0 0 0 1-5.82zm-24-2.18h2v2h-2zm5 4a1 1 0 0 1 1 1v1h-10v-1a1 1 0 0 1 1-1zm15.18 2h-8.18v-3a11.02 11.02 0 0 1 10-10.96v10.14a2.964 2.964 0 0 0 -1.82 3.82zm2.82 0a1 1 0 1 1 1-1 1 1 0 0 1 -1 1z"/><path d="m16 32h2v2h-2z"/><path d="m14 34h2v2h-2z"/><path d="m16 36h2v2h-2z"/><path d="m18 34h2v2h-2z"/><path d="m10 44h2v2h-2z"/><path d="m8 46h2v2h-2z"/><path d="m10 48h2v2h-2z"/><path d="m12 46h2v2h-2z"/><path d="m52 44h2v2h-2z"/><path d="m50 46h2v2h-2z"/><path d="m52 48h2v2h-2z"/><path d="m54 46h2v2h-2z"/><path d="m4 32h2v2h-2z"/><path d="m2 34h2v2h-2z"/><path d="m4 36h2v2h-2z"/><path d="m6 34h2v2h-2z"/><path d="m58 32h2v2h-2z"/><path d="m56 34h2v2h-2z"/><path d="m58 36h2v2h-2z"/><path d="m60 34h2v2h-2z"/><path d="m46 32h2v2h-2z"/><path d="m44 34h2v2h-2z"/><path d="m46 36h2v2h-2z"/><path d="m48 34h2v2h-2z"/><path d="m58 56h2v2h-2z"/><path d="m56 58h2v2h-2z"/><path d="m58 60h2v2h-2z"/><path d="m60 58h2v2h-2z"/><path d="m4 56h2v2h-2z"/><path d="m2 58h2v2h-2z"/><path d="m4 60h2v2h-2z"/><path d="m6 58h2v2h-2z"/><path d="m25 32h2v4h-2z"/><path d="m31 32h2v4h-2z"/><path d="m37 32h2v4h-2z"/></g></svg>