<?xml version="1.0" encoding="iso-8859-1"?>
<!-- Generator: Adobe Illustrator 19.0.0, SVG Export Plug-In . SVG Version: 6.00 Build 0)  -->
<svg version="1.1" id="Capa_1" xmlns="http://www.w3.org/2000/svg" xmlns:xlink="http://www.w3.org/1999/xlink" x="0px" y="0px"
	 viewBox="0 0 512 512" style="enable-background:new 0 0 512 512;" xml:space="preserve">
<g>
	<g>
		<path d="M117.914,29.804c-28.428,0-51.557,23.129-51.557,51.557c0,28.428,23.128,51.556,51.557,51.556
			c28.428,0,51.556-23.128,51.556-51.556C169.47,52.932,146.342,29.804,117.914,29.804z M117.914,112.918
			c-17.4,0-31.557-14.156-31.557-31.556c0-17.401,14.156-31.557,31.557-31.557c17.4,0,31.556,14.156,31.556,31.557
			C149.47,98.761,135.314,112.918,117.914,112.918z"/>
	</g>
</g>
<g>
	<g>
		<path d="M130.337,79.642l-10.705-10.705c-3.905-3.903-10.237-3.903-14.142,0c-3.905,3.905-3.906,10.237-0.001,14.143
			l10.705,10.705c1.953,1.952,4.512,2.929,7.071,2.929c2.559,0,5.119-0.977,7.071-2.929
			C134.241,89.88,134.242,83.548,130.337,79.642z"/>
	</g>
</g>
<g>
	<g>
		<path d="M230.271,29.804c-28.428,0-51.556,23.128-51.556,51.557c-0.001,28.428,23.127,51.556,51.556,51.556
			c28.428,0,51.557-23.128,51.557-51.556C281.828,52.932,258.7,29.804,230.271,29.804z M230.271,112.918
			c-17.4,0-31.556-14.156-31.556-31.556c-0.001-17.401,14.156-31.557,31.556-31.557c17.4,0,31.557,14.156,31.557,31.557
			C261.828,98.761,247.672,112.918,230.271,112.918z"/>
	</g>
</g>
<g>
	<g>
		<path d="M242.694,79.642l-10.705-10.705c-3.905-3.904-10.237-3.904-14.143,0c-3.905,3.905-3.905,10.237,0,14.143l10.706,10.705
			c1.953,1.952,4.512,2.929,7.071,2.929s5.119-0.977,7.071-2.929C246.599,89.88,246.599,83.548,242.694,79.642z"/>
	</g>
</g>
<g>
	<g>
		<path d="M396.644,51.689h-91.688c-5.523,0-10,4.478-10,10c0,5.523,4.477,10,10,10h91.688c5.523,0,10-4.478,10-10
			C406.644,56.167,402.167,51.689,396.644,51.689z"/>
	</g>
</g>
<g>
	<g>
		<path d="M396.644,84.805h-91.688c-5.523,0-10,4.478-10,10c0,5.522,4.477,10,10,10h91.688c5.523,0,10-4.478,10-10
			C406.644,89.283,402.167,84.805,396.644,84.805z"/>
	</g>
</g>
<g>
	<g>
		<path d="M455.176,439.001h-3.333V159.413c18.207-7.094,31.144-24.815,31.144-45.502V10c0-5.523-4.477-10-10-10H39.015
			c-5.523,0-10,4.477-10,10v103.911c0,20.687,12.936,38.408,31.143,45.502v279.588h-3.333c-26.482,0-48.028,21.546-48.028,48.028
			V502c0,5.522,4.477,10,10,10h474.406c5.523,0,10-4.478,10-10v-14.971C503.204,460.547,481.659,439.001,455.176,439.001z
			 M49.015,113.911V20h413.972v93.911c0,15.886-12.924,28.811-28.811,28.811H77.826C61.94,142.722,49.015,129.797,49.015,113.911z
			 M352.281,376.719c-1.017-10.647-3.853-22.32-8.944-32.013h5.494c5.523,0,10-4.478,10-10c0-5.522-4.477-10-10-10h-20.096V295.71
			c0-5.522-4.477-10-10-10H184.609c-3.468,0-6.688,1.797-8.51,4.748c-1.822,2.951-1.984,6.636-0.429,9.735l15.455,30.809
			c-11.947,10.235-17.897,29.21-19.473,45.717c-0.32,3.349-0.482,6.758-0.482,10.134c0,18.395,4.814,36.36,13.792,52.148H80.159
			V221.739h105.893v33.695c0,5.522,4.477,10,10,10h41.506c5.523,0,10-4.478,10-10v-33.695h16.644v33.695c0,5.522,4.477,10,10,10
			h41.506c5.523,0,10-4.478,10-10v-33.695h106.135v217.262h-92.872c8.979-15.787,13.792-33.753,13.792-52.148
			C352.763,383.477,352.601,380.068,352.281,376.719z M206.279,344.707h111.376c4.877,2.713,10.082,10.804,12.942,22.963h-137.26
			C196.197,355.512,201.401,347.42,206.279,344.707z M200.813,305.71h107.922v18.997h-98.392L200.813,305.71z M332.759,387.67
			c-0.178,18.619-6.436,36.653-17.748,51.331H208.923c-11.312-14.678-17.569-32.712-17.748-51.331H332.759z M133.763,201.74H80.159
			v-39.018h44.729v11.345C124.888,184.377,128.178,193.932,133.763,201.74z M172.562,201.739c-15.259,0-27.673-12.414-27.673-27.673
			v-11.345h222.226v11.345c0,15.259-12.414,27.673-27.673,27.673H172.562z M305.708,221.739v23.695h-21.506v-23.695H305.708z
			 M227.558,221.739v23.695h-21.506v-23.695H227.558z M378.239,201.739c5.585-7.807,8.875-17.363,8.875-27.673v-11.345h44.729
			v39.018H378.239z M483.205,492h-0.001H28.798v-4.971c0-15.455,12.573-28.028,28.028-28.028h398.351
			c15.455,0,28.028,12.573,28.028,28.028V492z"/>
	</g>
</g>
<g>
	<g>
		<path d="M328.95,170h-16c-5.523,0-10,4.477-10,10s4.477,10,10,10h16c5.523,0,10-4.477,10-10S334.473,170,328.95,170z"/>
	</g>
</g>
<g>
	<g>
		<path d="M199.052,170h-16c-5.523,0-10,4.477-10,10s4.477,10,10,10h16c5.523,0,10-4.477,10-10S204.575,170,199.052,170z"/>
	</g>
</g>
<g>
	<g>
		<path d="M264.001,170h-16c-5.523,0-10,4.477-10,10s4.477,10,10,10h16c5.523,0,10-4.477,10-10S269.524,170,264.001,170z"/>
	</g>
</g>
<g>
	<g>
		<circle cx="435.641" cy="94.81" r="10"/>
	</g>
</g>
<g>
	<g>
		<circle cx="435.641" cy="61.689" r="10"/>
	</g>
</g>
<g>
</g>
<g>
</g>
<g>
</g>
<g>
</g>
<g>
</g>
<g>
</g>
<g>
</g>
<g>
</g>
<g>
</g>
<g>
</g>
<g>
</g>
<g>
</g>
<g>
</g>
<g>
</g>
<g>
</g>
</svg>
