<?xml version="1.0" encoding="iso-8859-1"?>
<!-- Generator: Adobe Illustrator 19.0.0, SVG Export Plug-In . SVG Version: 6.00 Build 0)  -->
<svg version="1.1" id="Capa_1" xmlns="http://www.w3.org/2000/svg" xmlns:xlink="http://www.w3.org/1999/xlink" x="0px" y="0px"
	 viewBox="0 0 496.941 496.941" style="enable-background:new 0 0 496.941 496.941;" xml:space="preserve">
<g>
	<g>
		<g>
			<path d="M489.412,0H113.694c-4.518,0-7.529,3.012-7.529,7.529v42.165H7.529C3.012,49.694,0,52.706,0,57.224v432.188
				c0,4.518,3.012,7.529,7.529,7.529h375.718c4.518,0,7.529-3.012,7.529-7.529v-42.165h98.635c4.518,0,7.529-3.012,7.529-7.529
				V7.529C496.941,3.012,493.929,0,489.412,0z M375.718,481.882H15.059V64.753h91.106v374.965c0,4.518,3.012,7.529,7.529,7.529
				h262.024V481.882z M481.882,432.188H121.224V15.059h360.659V432.188z"/>
			<path d="M301.176,196.518c22.588,0,40.659-18.071,40.659-39.906s-18.071-39.906-40.659-39.906
				c-22.588,0-40.659,18.071-40.659,39.906S279.341,196.518,301.176,196.518z M301.176,131.765c14.306,0,25.6,11.294,25.6,24.847
				s-11.294,24.847-25.6,24.847s-25.6-11.294-25.6-24.847S287.624,131.765,301.176,131.765z"/>
			<path d="M250.729,263.529h100.894c4.518,0,7.529-3.012,7.529-7.529v-21.835c0-18.823-15.059-33.882-33.882-33.882h-47.435
				c-18.824,0-33.882,15.059-33.882,33.882V256C243.2,260.518,246.965,263.529,250.729,263.529z M258.259,234.165
				c0-10.541,8.282-18.823,18.824-18.823h47.435c10.541,0,18.824,8.282,18.824,18.823v14.306h-85.082V234.165z"/>
			<path d="M154.353,198.023h16.565c3.765,64.753,57.224,117.459,122.729,121.224v15.812c0,4.518,3.012,7.529,7.529,7.529
				s7.529-3.012,7.529-7.529v-15.812c66.259-3.765,118.965-55.718,122.729-121.224H448c4.518,0,7.529-3.012,7.529-7.529
				c0-4.518-3.012-7.529-7.529-7.529h-16.565c-3.012-65.506-56.471-117.459-122.729-121.224V45.929c0-4.518-3.012-7.529-7.529-7.529
				s-7.529,3.012-7.529,7.529v15.812c-66.259,3.765-118.965,55.718-122.729,121.224h-16.565c-4.518,0-7.529,3.012-7.529,7.529
				C146.824,194.259,150.588,198.023,154.353,198.023z M201.788,182.965h-15.812c3.765-57.224,50.447-102.4,107.671-106.165v15.059
				c0,4.518,3.012,7.529,7.529,7.529s7.529-3.012,7.529-7.529V76.8c57.977,3.765,103.906,48.941,107.671,106.165h-15.812
				c-4.518,0-7.529,3.012-7.529,7.529c0,4.518,3.012,7.529,7.529,7.529h15.812c-3.765,56.471-50.447,102.4-107.671,106.165v-15.059
				c0-4.518-3.012-7.529-7.529-7.529s-7.529,3.012-7.529,7.529v15.059c-57.976-3.765-103.906-48.941-107.671-106.165h15.812
				c4.518,0,7.529-3.012,7.529-7.529C209.318,185.976,206.306,182.965,201.788,182.965z"/>
			<path d="M398.306,355.388H204.8c-4.518,0-7.529,3.012-7.529,7.529s3.012,7.529,7.529,7.529h193.506
				c4.518,0,7.529-3.012,7.529-7.529S402.824,355.388,398.306,355.388z"/>
			<path d="M398.306,392.282H204.8c-4.518,0-7.529,3.012-7.529,7.529s3.012,7.529,7.529,7.529h193.506
				c4.518,0,7.529-3.012,7.529-7.529S402.824,392.282,398.306,392.282z"/>
		</g>
	</g>
</g>
<g>
</g>
<g>
</g>
<g>
</g>
<g>
</g>
<g>
</g>
<g>
</g>
<g>
</g>
<g>
</g>
<g>
</g>
<g>
</g>
<g>
</g>
<g>
</g>
<g>
</g>
<g>
</g>
<g>
</g>
</svg>
